<svg width="308" height="132" viewBox="0 0 308 132" fill="none" xmlns="http://www.w3.org/2000/svg">
<g clip-path="url(#clip0_518_1002)">
<rect width="154" height="132" fill="white"/>
<rect width="154" height="132" fill="#1A00FF"/>
<mask id="mask0_518_1002" style="mask-type:alpha" maskUnits="userSpaceOnUse" x="55" y="9" width="42" height="116">
<path d="M73.7976 124.909L94.1055 49.1189C96.2967 40.9411 97.9792 34.6618 94.1943 26.761C88.9401 15.6491 78.0718 12.737 74.3042 11.7274C70.9712 10.8344 67.1644 9.97087 60.0015 9.46021L55.9712 24.5014C62.2213 23.2023 66.3179 24.1435 70.2304 25.1918C74.2879 26.279 79.2583 29.176 80.8102 33.8178C82.1897 37.9438 80.9376 42.6167 78.5898 51.3786L59.8862 121.181L73.7976 124.909Z" fill="white"/>
</mask>
<g mask="url(#mask0_518_1002)">
<rect width="73" height="8" transform="matrix(-1 0 0 1 105.127 117)" fill="#FF0000"/>
<rect width="73" height="8" transform="matrix(-1 0 0 1 105.127 109)" fill="white"/>
<rect width="73" height="8" transform="matrix(-1 0 0 1 105.127 101)" fill="#FF0000"/>
<rect width="73" height="8" transform="matrix(-1 0 0 1 105.127 93)" fill="white"/>
<rect width="73" height="8" transform="matrix(-1 0 0 1 105.127 85)" fill="#FF0000"/>
<rect width="73" height="8" transform="matrix(-1 0 0 1 105.127 77)" fill="white"/>
<rect width="73" height="8" transform="matrix(-1 0 0 1 105.127 69)" fill="#FF0000"/>
<rect width="73" height="8" transform="matrix(-1 0 0 1 105.127 61)" fill="white"/>
<rect width="73" height="8" transform="matrix(-1 0 0 1 105.127 53)" fill="#FF0000"/>
<rect width="73" height="8" transform="matrix(-1 0 0 1 105.127 45)" fill="white"/>
<rect width="73" height="8" transform="matrix(-1 0 0 1 105.127 37)" fill="#FF0000"/>
<rect width="73" height="8" transform="matrix(-1 0 0 1 105.127 29)" fill="white"/>
<rect width="73" height="8" transform="matrix(-1 0 0 1 105.127 21)" fill="#FF0000"/>
<rect width="73" height="8" transform="matrix(-1 0 0 1 105.127 13)" fill="white"/>
<rect width="73" height="8" transform="matrix(-1 0 0 1 105.127 5)" fill="#FF0000"/>
</g>
<mask id="mask1_518_1002" style="mask-type:alpha" maskUnits="userSpaceOnUse" x="96" y="9" width="41" height="116">
<path d="M113.861 124.909L134.169 49.1189C136.36 40.9411 138.043 34.6618 134.258 26.761C129.004 15.6491 118.135 12.737 114.368 11.7274C111.035 10.8344 107.228 9.97087 100.065 9.46021L96.0347 24.5014C102.285 23.2023 106.381 24.1435 110.294 25.1918C114.351 26.279 119.322 29.176 120.874 33.8178C122.253 37.9438 121.001 42.6167 118.653 51.3786L99.9497 121.181L113.861 124.909Z" fill="white"/>
</mask>
<g mask="url(#mask1_518_1002)">
<rect width="73" height="8" transform="matrix(-1 0 0 1 145.19 117)" fill="#FF0000"/>
<rect width="73" height="8" transform="matrix(-1 0 0 1 145.19 109)" fill="white"/>
<rect width="73" height="8" transform="matrix(-1 0 0 1 145.19 101)" fill="#FF0000"/>
<rect width="73" height="8" transform="matrix(-1 0 0 1 145.19 93)" fill="white"/>
<rect width="73" height="8" transform="matrix(-1 0 0 1 145.19 85)" fill="#FF0000"/>
<rect width="73" height="8" transform="matrix(-1 0 0 1 145.19 77)" fill="white"/>
<rect width="73" height="8" transform="matrix(-1 0 0 1 145.19 69)" fill="#FF0000"/>
<rect width="73" height="8" transform="matrix(-1 0 0 1 145.19 61)" fill="white"/>
<rect width="73" height="8" transform="matrix(-1 0 0 1 145.19 53)" fill="#FF0000"/>
<rect width="73" height="8" transform="matrix(-1 0 0 1 145.19 45)" fill="white"/>
<rect width="73" height="8" transform="matrix(-1 0 0 1 145.19 37)" fill="#FF0000"/>
<rect width="73" height="8" transform="matrix(-1 0 0 1 145.19 29)" fill="white"/>
<rect width="73" height="8" transform="matrix(-1 0 0 1 145.19 21)" fill="#FF0000"/>
<rect width="73" height="8" transform="matrix(-1 0 0 1 145.19 13)" fill="white"/>
<rect width="73" height="8" transform="matrix(-1 0 0 1 145.19 5)" fill="#FF0000"/>
</g>
<mask id="mask2_518_1002" style="mask-type:alpha" maskUnits="userSpaceOnUse" x="15" y="9" width="42" height="116">
<path d="M33.7341 124.909L54.042 49.1189C56.2332 40.9411 57.9158 34.6618 54.1309 26.761C48.8766 15.6491 38.0084 12.737 34.2407 11.7274C30.9078 10.8344 27.101 9.97087 19.938 9.46021L15.9078 24.5014C22.1578 23.2023 26.2544 24.1435 30.167 25.1918C34.2245 26.279 39.1948 29.176 40.7467 33.8178C42.1262 37.9438 40.8741 42.6167 38.5264 51.3786L19.8227 121.181L33.7341 124.909Z" fill="white"/>
</mask>
<g mask="url(#mask2_518_1002)">
<rect width="73" height="8" transform="matrix(-1 0 0 1 65.0635 117)" fill="#FF0000"/>
<rect width="73" height="8" transform="matrix(-1 0 0 1 65.0635 109)" fill="white"/>
<rect width="73" height="8" transform="matrix(-1 0 0 1 65.0635 101)" fill="#FF0000"/>
<rect width="73" height="8" transform="matrix(-1 0 0 1 65.0635 93)" fill="white"/>
<rect width="73" height="8" transform="matrix(-1 0 0 1 65.0635 85)" fill="#FF0000"/>
<rect width="73" height="8" transform="matrix(-1 0 0 1 65.0635 77)" fill="white"/>
<rect width="73" height="8" transform="matrix(-1 0 0 1 65.0635 69)" fill="#FF0000"/>
<rect width="73" height="8" transform="matrix(-1 0 0 1 65.0635 61)" fill="white"/>
<rect width="73" height="8" transform="matrix(-1 0 0 1 65.0635 53)" fill="#FF0000"/>
<rect width="73" height="8" transform="matrix(-1 0 0 1 65.0635 45)" fill="white"/>
<rect width="73" height="8" transform="matrix(-1 0 0 1 65.0635 37)" fill="#FF0000"/>
<rect width="73" height="8" transform="matrix(-1 0 0 1 65.0635 29)" fill="white"/>
<rect width="73" height="8" transform="matrix(-1 0 0 1 65.0635 21)" fill="#FF0000"/>
<rect width="73" height="8" transform="matrix(-1 0 0 1 65.0635 13)" fill="white"/>
<rect width="73" height="8" transform="matrix(-1 0 0 1 65.0635 5)" fill="#FF0000"/>
</g>
</g>
<g clip-path="url(#clip1_518_1002)">
<rect width="154" height="132" transform="translate(154)" fill="#FF0000"/>
<rect x="154" width="154" height="132" fill="#1A00FF"/>
<mask id="mask3_518_1002" style="mask-type:alpha" maskUnits="userSpaceOnUse" x="209" y="9" width="42" height="116">
<path d="M227.798 124.909L248.105 49.1189C250.297 40.9411 251.979 34.6618 248.194 26.761C242.94 15.6491 232.072 12.737 228.304 11.7274C224.971 10.8344 221.164 9.97087 214.002 9.46021L209.971 24.5014C216.221 23.2023 220.318 24.1435 224.23 25.1918C228.288 26.279 233.258 29.176 234.81 33.8178C236.19 37.9438 234.938 42.6167 232.59 51.3786L213.886 121.181L227.798 124.909Z" fill="white"/>
</mask>
<g mask="url(#mask3_518_1002)">
<rect width="73" height="8" transform="matrix(-1 0 0 1 259.127 117)" fill="white"/>
<rect width="73" height="8" transform="matrix(-1 0 0 1 259.127 109)" fill="#FF0000"/>
<rect width="73" height="8" transform="matrix(-1 0 0 1 259.127 101)" fill="white"/>
<rect width="73" height="8" transform="matrix(-1 0 0 1 259.127 93)" fill="#FF0000"/>
<rect width="73" height="8" transform="matrix(-1 0 0 1 259.127 85)" fill="white"/>
<rect width="73" height="8" transform="matrix(-1 0 0 1 259.127 77)" fill="#FF0000"/>
<rect width="73" height="8" transform="matrix(-1 0 0 1 259.127 69)" fill="white"/>
<rect width="73" height="8" transform="matrix(-1 0 0 1 259.127 61)" fill="#FF0000"/>
<rect width="73" height="8" transform="matrix(-1 0 0 1 259.127 53)" fill="white"/>
<rect width="73" height="8" transform="matrix(-1 0 0 1 259.127 45)" fill="#FF0000"/>
<rect width="73" height="8" transform="matrix(-1 0 0 1 259.127 37)" fill="white"/>
<rect width="73" height="8" transform="matrix(-1 0 0 1 259.127 29)" fill="#FF0000"/>
<rect width="73" height="8" transform="matrix(-1 0 0 1 259.127 21)" fill="white"/>
<rect width="73" height="8" transform="matrix(-1 0 0 1 259.127 13)" fill="#FF0000"/>
<rect width="73" height="8" transform="matrix(-1 0 0 1 259.127 5)" fill="white"/>
</g>
<mask id="mask4_518_1002" style="mask-type:alpha" maskUnits="userSpaceOnUse" x="250" y="9" width="41" height="116">
<path d="M267.861 124.909L288.169 49.1189C290.36 40.9411 292.043 34.6618 288.258 26.761C283.004 15.6491 272.135 12.737 268.368 11.7274C265.035 10.8344 261.228 9.97087 254.065 9.46021L250.035 24.5014C256.285 23.2023 260.381 24.1435 264.294 25.1918C268.351 26.279 273.322 29.176 274.874 33.8178C276.253 37.9438 275.001 42.6167 272.653 51.3786L253.95 121.181L267.861 124.909Z" fill="white"/>
</mask>
<g mask="url(#mask4_518_1002)">
<rect width="73" height="8" transform="matrix(-1 0 0 1 299.19 117)" fill="white"/>
<rect width="73" height="8" transform="matrix(-1 0 0 1 299.19 109)" fill="#FF0000"/>
<rect width="73" height="8" transform="matrix(-1 0 0 1 299.19 101)" fill="white"/>
<rect width="73" height="8" transform="matrix(-1 0 0 1 299.19 93)" fill="#FF0000"/>
<rect width="73" height="8" transform="matrix(-1 0 0 1 299.19 85)" fill="white"/>
<rect width="73" height="8" transform="matrix(-1 0 0 1 299.19 77)" fill="#FF0000"/>
<rect width="73" height="8" transform="matrix(-1 0 0 1 299.19 69)" fill="white"/>
<rect width="73" height="8" transform="matrix(-1 0 0 1 299.19 61)" fill="#FF0000"/>
<rect width="73" height="8" transform="matrix(-1 0 0 1 299.19 53)" fill="white"/>
<rect width="73" height="8" transform="matrix(-1 0 0 1 299.19 45)" fill="#FF0000"/>
<rect width="73" height="8" transform="matrix(-1 0 0 1 299.19 37)" fill="white"/>
<rect width="73" height="8" transform="matrix(-1 0 0 1 299.19 29)" fill="#FF0000"/>
<rect width="73" height="8" transform="matrix(-1 0 0 1 299.19 21)" fill="white"/>
<rect width="73" height="8" transform="matrix(-1 0 0 1 299.19 13)" fill="#FF0000"/>
<rect width="73" height="8" transform="matrix(-1 0 0 1 299.19 5)" fill="white"/>
</g>
<mask id="mask5_518_1002" style="mask-type:alpha" maskUnits="userSpaceOnUse" x="169" y="9" width="42" height="116">
<path d="M187.734 124.909L208.042 49.1189C210.233 40.9411 211.916 34.6618 208.131 26.761C202.877 15.6491 192.008 12.737 188.241 11.7274C184.908 10.8344 181.101 9.97087 173.938 9.46021L169.908 24.5014C176.158 23.2023 180.254 24.1435 184.167 25.1918C188.224 26.279 193.195 29.176 194.747 33.8178C196.126 37.9438 194.874 42.6167 192.526 51.3786L173.823 121.181L187.734 124.909Z" fill="white"/>
</mask>
<g mask="url(#mask5_518_1002)">
<rect width="73" height="8" transform="matrix(-1 0 0 1 219.063 117)" fill="white"/>
<rect width="73" height="8" transform="matrix(-1 0 0 1 219.063 109)" fill="#FF0000"/>
<rect width="73" height="8" transform="matrix(-1 0 0 1 219.063 101)" fill="white"/>
<rect width="73" height="8" transform="matrix(-1 0 0 1 219.063 93)" fill="#FF0000"/>
<rect width="73" height="8" transform="matrix(-1 0 0 1 219.063 85)" fill="white"/>
<rect width="73" height="8" transform="matrix(-1 0 0 1 219.063 77)" fill="#FF0000"/>
<rect width="73" height="8" transform="matrix(-1 0 0 1 219.063 69)" fill="white"/>
<rect width="73" height="8" transform="matrix(-1 0 0 1 219.063 61)" fill="#FF0000"/>
<rect width="73" height="8" transform="matrix(-1 0 0 1 219.063 53)" fill="white"/>
<rect width="73" height="8" transform="matrix(-1 0 0 1 219.063 45)" fill="#FF0000"/>
<rect width="73" height="8" transform="matrix(-1 0 0 1 219.063 37)" fill="white"/>
<rect width="73" height="8" transform="matrix(-1 0 0 1 219.063 29)" fill="#FF0000"/>
<rect width="73" height="8" transform="matrix(-1 0 0 1 219.063 21)" fill="white"/>
<rect width="73" height="8" transform="matrix(-1 0 0 1 219.063 13)" fill="#FF0000"/>
<rect width="73" height="8" transform="matrix(-1 0 0 1 219.063 5)" fill="white"/>
</g>
</g>
<defs>
<clipPath id="clip0_518_1002">
<rect width="154" height="132" fill="white"/>
</clipPath>
<clipPath id="clip1_518_1002">
<rect width="154" height="132" fill="white" transform="translate(154)"/>
</clipPath>
</defs>
</svg>
