<svg width="308" height="132" viewBox="0 0 308 132" fill="none" xmlns="http://www.w3.org/2000/svg">
<g clip-path="url(#clip0_518_1001)">
<rect width="154" height="132" fill="white"/>
<rect width="154" height="132" fill="#1A00FF"/>
<mask id="mask0_518_1001" style="mask-type:alpha" maskUnits="userSpaceOnUse" x="57" y="9" width="42" height="116">
<path d="M80.3928 124.909L60.0849 49.119C57.8937 40.9413 56.2112 34.6619 59.9961 26.7611C65.2503 15.6493 76.1186 12.7371 79.8863 11.7276C83.2192 10.8345 87.026 9.97099 94.1889 9.46033L98.2192 24.5015C91.9692 23.2024 87.8726 24.1436 83.96 25.192C79.9025 26.2792 74.9321 29.1761 73.3802 33.8179C72.0007 37.9439 73.2529 42.6169 75.6006 51.3787L94.3042 121.182L80.3928 124.909Z" fill="white"/>
</mask>
<g mask="url(#mask0_518_1001)">
<rect x="49.0635" y="117" width="73" height="8" fill="#FF0000"/>
<rect x="49.0635" y="109" width="73" height="8" fill="white"/>
<rect x="49.0635" y="101" width="73" height="8" fill="#FF0000"/>
<rect x="49.0635" y="93" width="73" height="8" fill="white"/>
<rect x="49.0635" y="85" width="73" height="8" fill="#FF0000"/>
<rect x="49.0635" y="77" width="73" height="8" fill="white"/>
<rect x="49.0635" y="69" width="73" height="8" fill="#FF0000"/>
<rect x="49.0635" y="61" width="73" height="8" fill="white"/>
<rect x="49.0635" y="53" width="73" height="8" fill="#FF0000"/>
<rect x="49.0635" y="45" width="73" height="8" fill="white"/>
<rect x="49.0635" y="37" width="73" height="8" fill="#FF0000"/>
<rect x="49.0635" y="29" width="73" height="8" fill="white"/>
<rect x="49.0635" y="21" width="73" height="8" fill="#FF0000"/>
<rect x="49.0635" y="13" width="73" height="8" fill="white"/>
<rect x="49.0635" y="5" width="73" height="8" fill="#FF0000"/>
</g>
<mask id="mask1_518_1001" style="mask-type:alpha" maskUnits="userSpaceOnUse" x="17" y="9" width="42" height="116">
<path d="M40.3294 124.909L20.0215 49.119C17.8303 40.9413 16.1477 34.6619 19.9326 26.7611C25.1869 15.6493 36.0551 12.7371 39.8228 11.7276C43.1557 10.8345 46.9625 9.97099 54.1254 9.46033L58.1557 24.5015C51.9057 23.2024 47.8091 24.1436 43.8965 25.192C39.839 26.2792 34.8686 29.1761 33.3167 33.8179C31.9373 37.9439 33.1894 42.6169 35.5371 51.3787L54.2407 121.182L40.3294 124.909Z" fill="white"/>
</mask>
<g mask="url(#mask1_518_1001)">
<rect x="9" y="117" width="73" height="8" fill="#FF0000"/>
<rect x="9" y="109" width="73" height="8" fill="white"/>
<rect x="9" y="101" width="73" height="8" fill="#FF0000"/>
<rect x="9" y="93" width="73" height="8" fill="white"/>
<rect x="9" y="85" width="73" height="8" fill="#FF0000"/>
<rect x="9" y="77" width="73" height="8" fill="white"/>
<rect x="9" y="69" width="73" height="8" fill="#FF0000"/>
<rect x="9" y="61" width="73" height="8" fill="white"/>
<rect x="9" y="53" width="73" height="8" fill="#FF0000"/>
<rect x="9" y="45" width="73" height="8" fill="white"/>
<rect x="9" y="37" width="73" height="8" fill="#FF0000"/>
<rect x="9" y="29" width="73" height="8" fill="white"/>
<rect x="9" y="21" width="73" height="8" fill="#FF0000"/>
<rect x="9" y="13" width="73" height="8" fill="white"/>
<rect x="9" y="5" width="73" height="8" fill="#FF0000"/>
</g>
<mask id="mask2_518_1001" style="mask-type:alpha" maskUnits="userSpaceOnUse" x="97" y="9" width="42" height="116">
<path d="M120.456 124.909L100.148 49.119C97.9572 40.9413 96.2747 34.6619 100.06 26.7611C105.314 15.6493 116.182 12.7371 119.95 11.7276C123.283 10.8345 127.089 9.97099 134.252 9.46033L138.283 24.5015C132.033 23.2024 127.936 24.1436 124.023 25.192C119.966 26.2792 114.996 29.1761 113.444 33.8179C112.064 37.9439 113.316 42.6169 115.664 51.3787L134.368 121.182L120.456 124.909Z" fill="white"/>
</mask>
<g mask="url(#mask2_518_1001)">
<rect x="89.127" y="117" width="73" height="8" fill="#FF0000"/>
<rect x="89.127" y="109" width="73" height="8" fill="white"/>
<rect x="89.127" y="101" width="73" height="8" fill="#FF0000"/>
<rect x="89.127" y="93" width="73" height="8" fill="white"/>
<rect x="89.127" y="85" width="73" height="8" fill="#FF0000"/>
<rect x="89.127" y="77" width="73" height="8" fill="white"/>
<rect x="89.127" y="69" width="73" height="8" fill="#FF0000"/>
<rect x="89.127" y="61" width="73" height="8" fill="white"/>
<rect x="89.127" y="53" width="73" height="8" fill="#FF0000"/>
<rect x="89.127" y="45" width="73" height="8" fill="white"/>
<rect x="89.127" y="37" width="73" height="8" fill="#FF0000"/>
<rect x="89.127" y="29" width="73" height="8" fill="white"/>
<rect x="89.127" y="21" width="73" height="8" fill="#FF0000"/>
<rect x="89.127" y="13" width="73" height="8" fill="white"/>
<rect x="89.127" y="5" width="73" height="8" fill="#FF0000"/>
</g>
</g>
<g clip-path="url(#clip1_518_1001)">
<rect width="154" height="132" transform="translate(154)" fill="white"/>
<rect x="154" width="154" height="132" fill="#1A00FF"/>
<mask id="mask3_518_1001" style="mask-type:alpha" maskUnits="userSpaceOnUse" x="211" y="9" width="42" height="116">
<path d="M234.393 124.909L214.085 49.119C211.894 40.9413 210.211 34.6619 213.996 26.7611C219.25 15.6493 230.119 12.7371 233.886 11.7276C237.219 10.8345 241.026 9.97099 248.189 9.46033L252.219 24.5015C245.969 23.2024 241.873 24.1436 237.96 25.192C233.902 26.2792 228.932 29.1761 227.38 33.8179C226.001 37.9439 227.253 42.6169 229.601 51.3787L248.304 121.182L234.393 124.909Z" fill="white"/>
</mask>
<g mask="url(#mask3_518_1001)">
<rect x="203.063" y="117" width="73" height="8" fill="white"/>
<rect x="203.063" y="109" width="73" height="8" fill="#FF0000"/>
<rect x="203.063" y="101" width="73" height="8" fill="white"/>
<rect x="203.063" y="93" width="73" height="8" fill="#FF0000"/>
<rect x="203.063" y="85" width="73" height="8" fill="white"/>
<rect x="203.063" y="77" width="73" height="8" fill="#FF0000"/>
<rect x="203.063" y="69" width="73" height="8" fill="white"/>
<rect x="203.063" y="61" width="73" height="8" fill="#FF0000"/>
<rect x="203.063" y="53" width="73" height="8" fill="white"/>
<rect x="203.063" y="45" width="73" height="8" fill="#FF0000"/>
<rect x="203.063" y="37" width="73" height="8" fill="white"/>
<rect x="203.063" y="29" width="73" height="8" fill="#FF0000"/>
<rect x="203.063" y="21" width="73" height="8" fill="white"/>
<rect x="203.063" y="13" width="73" height="8" fill="#FF0000"/>
<rect x="203.063" y="5" width="73" height="8" fill="white"/>
</g>
<mask id="mask4_518_1001" style="mask-type:alpha" maskUnits="userSpaceOnUse" x="171" y="9" width="42" height="116">
<path d="M194.329 124.909L174.021 49.119C171.83 40.9413 170.148 34.6619 173.933 26.7611C179.187 15.6493 190.055 12.7371 193.823 11.7276C197.156 10.8345 200.963 9.97099 208.125 9.46033L212.156 24.5015C205.906 23.2024 201.809 24.1436 197.897 25.192C193.839 26.2792 188.869 29.1761 187.317 33.8179C185.937 37.9439 187.189 42.6169 189.537 51.3787L208.241 121.182L194.329 124.909Z" fill="white"/>
</mask>
<g mask="url(#mask4_518_1001)">
<rect x="163" y="117" width="73" height="8" fill="white"/>
<rect x="163" y="109" width="73" height="8" fill="#FF0000"/>
<rect x="163" y="101" width="73" height="8" fill="white"/>
<rect x="163" y="93" width="73" height="8" fill="#FF0000"/>
<rect x="163" y="85" width="73" height="8" fill="white"/>
<rect x="163" y="77" width="73" height="8" fill="#FF0000"/>
<rect x="163" y="69" width="73" height="8" fill="white"/>
<rect x="163" y="61" width="73" height="8" fill="#FF0000"/>
<rect x="163" y="53" width="73" height="8" fill="white"/>
<rect x="163" y="45" width="73" height="8" fill="#FF0000"/>
<rect x="163" y="37" width="73" height="8" fill="white"/>
<rect x="163" y="29" width="73" height="8" fill="#FF0000"/>
<rect x="163" y="21" width="73" height="8" fill="white"/>
<rect x="163" y="13" width="73" height="8" fill="#FF0000"/>
<rect x="163" y="5" width="73" height="8" fill="white"/>
</g>
<mask id="mask5_518_1001" style="mask-type:alpha" maskUnits="userSpaceOnUse" x="251" y="9" width="42" height="116">
<path d="M274.456 124.909L254.148 49.119C251.957 40.9413 250.275 34.6619 254.06 26.7611C259.314 15.6493 270.182 12.7371 273.95 11.7276C277.283 10.8345 281.089 9.97099 288.252 9.46033L292.283 24.5015C286.033 23.2024 281.936 24.1436 278.023 25.192C273.966 26.2792 268.996 29.1761 267.444 33.8179C266.064 37.9439 267.316 42.6169 269.664 51.3787L288.368 121.182L274.456 124.909Z" fill="white"/>
</mask>
<g mask="url(#mask5_518_1001)">
<rect x="243.127" y="117" width="73" height="8" fill="white"/>
<rect x="243.127" y="109" width="73" height="8" fill="#FF0000"/>
<rect x="243.127" y="101" width="73" height="8" fill="white"/>
<rect x="243.127" y="93" width="73" height="8" fill="#FF0000"/>
<rect x="243.127" y="85" width="73" height="8" fill="white"/>
<rect x="243.127" y="77" width="73" height="8" fill="#FF0000"/>
<rect x="243.127" y="69" width="73" height="8" fill="white"/>
<rect x="243.127" y="61" width="73" height="8" fill="#FF0000"/>
<rect x="243.127" y="53" width="73" height="8" fill="white"/>
<rect x="243.127" y="45" width="73" height="8" fill="#FF0000"/>
<rect x="243.127" y="37" width="73" height="8" fill="white"/>
<rect x="243.127" y="29" width="73" height="8" fill="#FF0000"/>
<rect x="243.127" y="21" width="73" height="8" fill="white"/>
<rect x="243.127" y="13" width="73" height="8" fill="#FF0000"/>
<rect x="243.127" y="5" width="73" height="8" fill="white"/>
</g>
</g>
<defs>
<clipPath id="clip0_518_1001">
<rect width="154" height="132" fill="white"/>
</clipPath>
<clipPath id="clip1_518_1001">
<rect width="154" height="132" fill="white" transform="translate(154)"/>
</clipPath>
</defs>
</svg>
