<svg width="441" height="132" viewBox="0 0 441 132" fill="none" xmlns="http://www.w3.org/2000/svg">
<path d="M386.053 79.9333C386.053 68.9333 386.93 58.6056 388.685 48.95C390.439 39.2944 392.812 30.8611 395.804 23.65C398.848 16.3167 402.382 10.5722 406.407 6.41667C410.483 2.13889 414.791 0 419.331 0C422.684 0 425.703 1.22222 428.385 3.66666C431.068 5.98889 433.338 9.41112 435.196 13.9333C437.053 18.3333 438.472 23.7722 439.452 30.25C440.484 36.7278 441 44 441 52.0667C441 63.0667 440.123 73.3945 438.369 83.05C436.615 92.7056 434.215 101.2 431.171 108.533C428.179 115.744 424.671 121.489 420.646 125.767C416.622 129.922 412.314 132 407.722 132C404.369 132 401.351 130.839 398.668 128.517C395.985 126.072 393.715 122.65 391.857 118.25C390 113.728 388.555 108.228 387.524 101.75C386.543 95.2722 386.053 88 386.053 79.9333ZM391.238 70.5833C391.238 80.2389 392.838 87.6944 396.037 92.95C399.287 98.2056 403.879 100.833 409.812 100.833C413.63 100.833 417.164 99.7945 420.414 97.7167C423.665 95.5167 426.451 92.5222 428.772 88.7333C431.146 84.8222 433.003 80.2389 434.344 74.9833C435.686 69.7278 436.357 63.9833 436.357 57.75C436.357 48.0944 434.731 40.6389 431.481 35.3833C428.282 30.1278 423.716 27.5 417.783 27.5C413.965 27.5 410.431 28.6 407.181 30.8C403.93 32.8778 401.118 35.8722 398.745 39.7833C396.423 43.5722 394.592 48.0944 393.25 53.35C391.909 58.6056 391.238 64.35 391.238 70.5833Z" fill="white"/>
<path d="M364.753 38.5C363.773 44.8556 363.773 50.1112 364.753 54.2667C365.785 58.4223 367.668 60.9889 370.403 61.9667C371.899 52.1889 372.905 43.6334 373.421 36.3C373.937 28.8445 374.246 22.55 374.35 17.4167C374.453 11.4278 374.298 6.23338 373.885 1.83337H392.227C390.472 6.23338 388.718 11.4278 386.964 17.4167C385.468 22.55 383.843 28.9056 382.089 36.4834C380.386 43.9389 378.787 52.5556 377.29 62.3334C375.691 72.8445 374.995 82.3167 375.201 90.75C375.459 99.1834 376.078 106.333 377.058 112.2C378.193 119.044 379.741 125.033 381.702 130.167H353.841C355.647 125.278 357.504 119.594 359.413 113.117C361.013 107.617 362.715 100.894 364.521 92.95C366.378 85.0056 368.133 76.0223 369.784 66C366.843 67.7112 364.057 71.8056 361.426 78.2834C358.846 84.7612 356.782 92.8889 355.234 102.667H354.073C355.518 93.1334 355.931 85.1889 355.312 78.8334C354.744 72.3556 353.3 68.1389 350.978 66.1834C349.482 76.2056 348.347 85.1889 347.573 93.1334C346.799 101.078 346.206 107.8 345.793 113.3C345.328 119.656 345.07 125.278 345.019 130.167H321.802C324.898 125.033 327.89 119.044 330.779 112.2C333.256 106.333 335.758 99.2445 338.286 90.9334C340.866 82.5 342.981 72.9667 344.632 62.3334C346.128 52.5556 346.799 43.9389 346.644 36.4834C346.489 28.9056 345.999 22.55 345.174 17.4167C344.245 11.4278 342.929 6.23338 341.227 1.83337H366.765C365.011 6.23338 363.231 11.4278 361.426 17.4167C359.929 22.55 358.304 28.8445 356.55 36.3C354.796 43.6334 353.171 52.1278 351.674 61.7834C354.409 60.5612 356.834 57.9334 358.949 53.9C361.116 49.8667 362.664 44.7334 363.592 38.5H364.753Z" fill="white"/>
<path d="M287.046 58.2998C288.491 59.0331 290.271 59.6442 292.386 60.1331C294.192 60.622 296.462 61.0498 299.196 61.4165C301.931 61.7831 305.207 61.9665 309.025 61.9665C312.843 61.9665 316.248 61.7831 319.24 61.4165C322.233 61.0498 324.812 60.622 326.979 60.1331C329.404 59.6442 331.571 59.0331 333.48 58.2998L330.385 78.4665C329.198 77.7331 327.65 77.122 325.741 76.6331C324.09 76.1442 321.949 75.7165 319.318 75.3498C316.738 74.9831 313.539 74.7998 309.721 74.7998C305.904 74.7998 302.421 74.9831 299.274 75.3498C296.178 75.7165 293.47 76.1442 291.148 76.6331C288.465 77.122 286.066 77.7331 283.951 78.4665L287.046 58.2998Z" fill="white"/>
<path d="M225.153 79.9333C225.153 68.9333 226.03 58.6056 227.784 48.95C229.538 39.2944 231.911 30.8611 234.904 23.65C237.948 16.3167 241.482 10.5722 245.506 6.41667C249.582 2.13889 253.89 0 258.43 0C261.784 0 264.802 1.22222 267.485 3.66666C270.168 5.98889 272.438 9.41112 274.295 13.9333C276.152 18.3333 277.571 23.7722 278.551 30.25C279.583 36.7278 280.099 44 280.099 52.0667C280.099 63.0667 279.222 73.3945 277.468 83.05C275.714 92.7056 273.315 101.2 270.271 108.533C267.278 115.744 263.77 121.489 259.746 125.767C255.722 129.922 251.413 132 246.822 132C243.468 132 240.45 130.839 237.767 128.517C235.084 126.072 232.814 122.65 230.957 118.25C229.099 113.728 227.655 108.228 226.623 101.75C225.643 95.2722 225.153 88 225.153 79.9333ZM230.338 70.5833C230.338 80.2389 231.937 87.6944 235.136 92.95C238.386 98.2056 242.978 100.833 248.911 100.833C252.729 100.833 256.263 99.7945 259.514 97.7167C262.764 95.5167 265.55 92.5222 267.872 88.7333C270.245 84.8222 272.102 80.2389 273.444 74.9833C274.785 69.7278 275.456 63.9833 275.456 57.75C275.456 48.0944 273.831 40.6389 270.58 35.3833C267.382 30.1278 262.816 27.5 256.882 27.5C253.064 27.5 249.53 28.6 246.28 30.8C243.03 32.8778 240.218 35.8722 237.845 39.7833C235.523 43.5722 233.691 48.0944 232.35 53.35C231.008 58.6056 230.338 64.35 230.338 70.5833Z" fill="white"/>
<path d="M203.852 38.5C202.872 44.8556 202.872 50.1112 203.852 54.2667C204.884 58.4223 206.767 60.9889 209.502 61.9667C210.998 52.1889 212.004 43.6334 212.52 36.3C213.036 28.8445 213.346 22.55 213.449 17.4167C213.552 11.4278 213.397 6.23338 212.984 1.83337H231.326C229.572 6.23338 227.817 11.4278 226.063 17.4167C224.567 22.55 222.942 28.9056 221.188 36.4834C219.485 43.9389 217.886 52.5556 216.39 62.3334C214.79 72.8445 214.094 82.3167 214.3 90.75C214.558 99.1834 215.177 106.333 216.157 112.2C217.292 119.044 218.84 125.033 220.801 130.167H192.94C194.746 125.278 196.604 119.594 198.513 113.117C200.112 107.617 201.814 100.894 203.62 92.95C205.478 85.0056 207.232 76.0223 208.883 66C205.942 67.7112 203.156 71.8056 200.525 78.2834C197.945 84.7612 195.881 92.8889 194.333 102.667H193.173C194.617 93.1334 195.03 85.1889 194.411 78.8334C193.843 72.3556 192.399 68.1389 190.077 66.1834C188.581 76.2056 187.446 85.1889 186.672 93.1334C185.898 101.078 185.305 107.8 184.892 113.3C184.428 119.656 184.17 125.278 184.118 130.167H160.901C163.997 125.033 166.989 119.044 169.878 112.2C172.355 106.333 174.857 99.2445 177.385 90.9334C179.965 82.5 182.08 72.9667 183.731 62.3334C185.227 52.5556 185.898 43.9389 185.743 36.4834C185.588 28.9056 185.098 22.55 184.273 17.4167C183.344 11.4278 182.029 6.23338 180.326 1.83337H205.865C204.11 6.23338 202.33 11.4278 200.525 17.4167C199.028 22.55 197.403 28.8445 195.649 36.3C193.895 43.6334 192.27 52.1278 190.774 61.7834C193.508 60.5612 195.933 57.9334 198.048 53.9C200.215 49.8667 201.763 44.7334 202.692 38.5H203.852Z" fill="white"/>
<path d="M126.145 58.2998C127.59 59.0331 129.37 59.6442 131.485 60.1331C133.291 60.622 135.561 61.0498 138.296 61.4165C141.03 61.7831 144.306 61.9665 148.124 61.9665C151.942 61.9665 155.347 61.7831 158.34 61.4165C161.332 61.0498 163.912 60.622 166.078 60.1331C168.503 59.6442 170.67 59.0331 172.579 58.2998L169.484 78.4665C168.297 77.7331 166.749 77.122 164.84 76.6331C163.189 76.1442 161.048 75.7165 158.417 75.3498C155.837 74.9831 152.638 74.7998 148.821 74.7998C145.003 74.7998 141.52 74.9831 138.373 75.3498C135.277 75.7165 132.569 76.1442 130.247 76.6331C127.564 77.122 125.165 77.7331 123.05 78.4665L126.145 58.2998Z" fill="white"/>
<path d="M64.2518 79.9333C64.2518 68.9333 65.1289 58.6056 66.8831 48.95C68.6372 39.2944 71.0105 30.8611 74.0029 23.65C77.0469 16.3167 80.5811 10.5722 84.6053 6.41667C88.6812 2.13889 92.9892 0 97.5294 0C100.883 0 103.901 1.22222 106.584 3.66666C109.267 5.98889 111.537 9.41112 113.394 13.9333C115.252 18.3333 116.67 23.7722 117.651 30.25C118.683 36.7278 119.199 44 119.199 52.0667C119.199 63.0667 118.321 73.3945 116.567 83.05C114.813 92.7056 112.414 101.2 109.37 108.533C106.378 115.744 102.869 121.489 98.845 125.767C94.8208 129.922 90.5127 132 85.9209 132C82.5674 132 79.5492 130.839 76.8664 128.517C74.1835 126.072 71.9134 122.65 70.0561 118.25C68.1987 113.728 66.7541 108.228 65.7222 101.75C64.742 95.2722 64.2518 88 64.2518 79.9333ZM69.4369 70.5833C69.4369 80.2389 71.0363 87.6944 74.2351 92.95C77.4855 98.2056 82.0773 100.833 88.0105 100.833C91.8284 100.833 95.3625 99.7945 98.6129 97.7167C101.863 95.5167 104.649 92.5222 106.971 88.7333C109.344 84.8222 111.202 80.2389 112.543 74.9833C113.884 69.7278 114.555 63.9833 114.555 57.75C114.555 48.0944 112.93 40.6389 109.68 35.3833C106.481 30.1278 101.915 27.5 95.9816 27.5C92.1637 27.5 88.6296 28.6 85.3792 30.8C82.1289 32.8778 79.317 35.8722 76.9437 39.7833C74.6221 43.5722 72.7905 48.0944 71.4491 53.35C70.1077 58.6056 69.4369 64.35 69.4369 70.5833Z" fill="white"/>
<path d="M42.9513 38.5C41.971 44.8556 41.971 50.1112 42.9513 54.2667C43.9831 58.4223 45.8663 60.9889 48.6007 61.9667C50.0969 52.1889 51.103 43.6334 51.6189 36.3C52.1349 28.8445 52.4444 22.55 52.5476 17.4167C52.6508 11.4278 52.496 6.23338 52.0833 1.83337H70.4246C68.6705 6.23338 66.9163 11.4278 65.1621 17.4167C63.6659 22.55 62.0407 28.9056 60.2866 36.4834C58.584 43.9389 56.9846 52.5556 55.4884 62.3334C53.889 72.8445 53.1925 82.3167 53.3989 90.75C53.6569 99.1834 54.276 106.333 55.2562 112.2C56.3913 119.044 57.9391 125.033 59.8996 130.167H32.0393C33.8451 125.278 35.7024 119.594 37.6114 113.117C39.2108 107.617 40.9134 100.894 42.7191 92.95C44.5765 85.0056 46.3306 76.0223 47.9816 66C45.0408 67.7112 42.2548 71.8056 39.6235 78.2834C37.0439 84.7612 34.9801 92.8889 33.4323 102.667H32.2715C33.7161 93.1334 34.1289 85.1889 33.5097 78.8334C32.9422 72.3556 31.4976 68.1389 29.1759 66.1834C27.6797 76.2056 26.5447 85.1889 25.7708 93.1334C24.9969 101.078 24.4036 107.8 23.9908 113.3C23.5265 119.656 23.2685 125.278 23.2169 130.167H0C3.09559 125.033 6.08799 119.044 8.9772 112.2C11.4537 106.333 13.9559 99.2445 16.484 90.9334C19.0637 82.5 21.179 72.9667 22.83 62.3334C24.3262 52.5556 24.9969 43.9389 24.8421 36.4834C24.6873 28.9056 24.1972 22.55 23.3717 17.4167C22.443 11.4278 21.1274 6.23338 19.4248 1.83337H44.9634C43.2092 6.23338 41.4293 11.4278 39.6235 17.4167C38.1273 22.55 36.5021 28.8445 34.748 36.3C32.9938 43.6334 31.3686 52.1278 29.8724 61.7834C32.6069 60.5612 35.0317 57.9334 37.1471 53.9C39.314 49.8667 40.8618 44.7334 41.7904 38.5H42.9513Z" fill="white"/>
</svg>
