<svg width="770" height="353" viewBox="0 0 770 353" fill="none" xmlns="http://www.w3.org/2000/svg">
<g clip-path="url(#clip0_511_998)">
<rect width="154" height="353" fill="white"/>
<rect width="154" height="353" fill="#1A00FF"/>
<path d="M108.608 271.943L96.1513 293.279L74.4237 281.52L86.6725 302.975L65.6253 315.912L90.3304 316.032L91.0108 340.728L103.467 319.393L125.195 331.152L112.946 309.696L133.993 296.759L109.288 296.639L108.608 271.943Z" fill="white"/>
<path d="M108.608 99.1801L96.1513 120.515L74.4237 108.757L86.6725 130.212L65.6253 143.149L90.3304 143.269L91.0108 167.965L103.467 146.63L125.195 158.388L112.946 136.933L133.993 123.996L109.288 123.876L108.608 99.1801Z" fill="white"/>
<path d="M44.3924 185.562L56.8487 206.897L78.5763 195.138L66.3275 216.593L87.3747 229.531L62.6696 229.651L61.9892 254.347L49.5329 233.011L27.8053 244.77L40.0541 223.315L19.0069 210.378L43.712 210.258L44.3924 185.562Z" fill="white"/>
<path d="M44.3924 12.7984L56.8487 34.1337L78.5763 22.375L66.3275 43.8301L87.3747 56.7674L62.6696 56.8872L61.9892 81.5832L49.5329 60.2479L27.8053 72.0067L40.0541 50.5515L19.0069 37.6142L43.712 37.4944L44.3924 12.7984Z" fill="white"/>
<rect width="154" height="353" fill="#1A00FF"/>
<path d="M44.3924 271.943L56.8487 293.279L78.5763 281.52L66.3275 302.975L87.3747 315.912L62.6696 316.032L61.9892 340.728L49.5329 319.393L27.8053 331.152L40.0541 309.696L19.0069 296.759L43.712 296.639L44.3924 271.943Z" fill="white"/>
<path d="M44.3924 99.1801L56.8487 120.515L78.5763 108.757L66.3275 130.212L87.3747 143.149L62.6696 143.269L61.9892 167.965L49.5329 146.63L27.8053 158.388L40.0541 136.933L19.0069 123.996L43.712 123.876L44.3924 99.1801Z" fill="white"/>
<path d="M108.608 185.562L96.1513 206.897L74.4237 195.138L86.6725 216.593L65.6253 229.531L90.3304 229.651L91.0108 254.347L103.467 233.011L125.195 244.77L112.946 223.315L133.993 210.378L109.288 210.258L108.608 185.562Z" fill="white"/>
<path d="M108.608 12.7984L96.1513 34.1337L74.4237 22.375L86.6725 43.8301L65.6253 56.7674L90.3304 56.8872L91.0108 81.5832L103.467 60.2479L125.195 72.0067L112.946 50.5515L133.993 37.6142L109.288 37.4944L108.608 12.7984Z" fill="white"/>
</g>
<g clip-path="url(#clip1_511_998)">
<rect width="154" height="353" transform="translate(154)" fill="white"/>
<rect x="154" width="154" height="353" fill="#1A00FF"/>
<path d="M262.608 271.943L250.151 293.279L228.424 281.52L240.672 302.975L219.625 315.912L244.33 316.032L245.011 340.728L257.467 319.393L279.195 331.152L266.946 309.696L287.993 296.759L263.288 296.639L262.608 271.943Z" fill="white"/>
<path d="M262.608 99.1801L250.151 120.515L228.424 108.757L240.672 130.212L219.625 143.149L244.33 143.269L245.011 167.965L257.467 146.63L279.195 158.388L266.946 136.933L287.993 123.996L263.288 123.876L262.608 99.1801Z" fill="white"/>
<path d="M198.392 185.562L210.849 206.897L232.576 195.138L220.328 216.593L241.375 229.531L216.67 229.651L215.989 254.347L203.533 233.011L181.805 244.77L194.054 223.315L173.007 210.378L197.712 210.258L198.392 185.562Z" fill="white"/>
<rect x="154" width="154" height="353" fill="#1A00FF"/>
<path d="M198.392 271.943L210.849 293.279L232.576 281.52L220.328 302.975L241.375 315.912L216.67 316.032L215.989 340.728L203.533 319.393L181.805 331.152L194.054 309.696L173.007 296.759L197.712 296.639L198.392 271.943Z" fill="white"/>
<path d="M198.392 99.1801L210.849 120.515L232.576 108.757L220.328 130.212L241.375 143.149L216.67 143.269L215.989 167.965L203.533 146.63L181.805 158.388L194.054 136.933L173.007 123.996L197.712 123.876L198.392 99.1801Z" fill="white"/>
<path d="M262.608 185.562L250.151 206.897L228.424 195.138L240.672 216.593L219.625 229.531L244.33 229.651L245.011 254.347L257.467 233.011L279.195 244.77L266.946 223.315L287.993 210.378L263.288 210.258L262.608 185.562Z" fill="white"/>
</g>
<g clip-path="url(#clip2_511_998)">
<rect width="154" height="353" transform="translate(308)" fill="white"/>
<rect x="308" width="154" height="353" fill="#1A00FF"/>
<path d="M416.608 271.943L404.151 293.279L382.424 281.52L394.672 302.975L373.625 315.912L398.33 316.032L399.011 340.728L411.467 319.393L433.195 331.152L420.946 309.696L441.993 296.759L417.288 296.639L416.608 271.943Z" fill="white"/>
<path d="M352.392 185.562L364.849 206.897L386.576 195.138L374.328 216.593L395.375 229.531L370.67 229.651L369.989 254.347L357.533 233.011L335.805 244.77L348.054 223.315L327.007 210.378L351.712 210.258L352.392 185.562Z" fill="white"/>
<path d="M352.392 12.7984L364.849 34.1337L386.576 22.375L374.328 43.8301L395.375 56.7674L370.67 56.8872L369.989 81.5832L357.533 60.2479L335.805 72.0067L348.054 50.5515L327.007 37.6142L351.712 37.4944L352.392 12.7984Z" fill="white"/>
<rect x="308" width="154" height="353" fill="#1A00FF"/>
<path d="M352.392 271.943L364.849 293.279L386.576 281.52L374.328 302.975L395.375 315.912L370.67 316.032L369.989 340.728L357.533 319.393L335.805 331.152L348.054 309.696L327.007 296.759L351.712 296.639L352.392 271.943Z" fill="white"/>
<path d="M416.608 185.562L404.151 206.897L382.424 195.138L394.672 216.593L373.625 229.531L398.33 229.651L399.011 254.347L411.467 233.011L433.195 244.77L420.946 223.315L441.993 210.378L417.288 210.258L416.608 185.562Z" fill="white"/>
<path d="M416.608 12.7984L404.151 34.1337L382.424 22.375L394.672 43.8301L373.625 56.7674L398.33 56.8872L399.011 81.5832L411.467 60.2479L433.195 72.0067L420.946 50.5515L441.993 37.6142L417.288 37.4944L416.608 12.7984Z" fill="white"/>
</g>
<g clip-path="url(#clip3_511_998)">
<rect width="154" height="353" transform="translate(462)" fill="white"/>
<rect x="462" width="154" height="353" fill="#1A00FF"/>
<path d="M570.608 271.943L558.151 293.279L536.424 281.52L548.672 302.975L527.625 315.912L552.33 316.032L553.011 340.728L565.467 319.393L587.195 331.152L574.946 309.696L595.993 296.759L571.288 296.639L570.608 271.943Z" fill="white"/>
<path d="M570.608 99.1801L558.151 120.515L536.424 108.757L548.672 130.212L527.625 143.149L552.33 143.269L553.011 167.965L565.467 146.63L587.195 158.388L574.946 136.933L595.993 123.996L571.288 123.876L570.608 99.1801Z" fill="white"/>
<path d="M506.392 12.7984L518.849 34.1337L540.576 22.375L528.328 43.8301L549.375 56.7674L524.67 56.8872L523.989 81.5832L511.533 60.2479L489.805 72.0067L502.054 50.5515L481.007 37.6142L505.712 37.4944L506.392 12.7984Z" fill="white"/>
<rect x="462" width="154" height="353" fill="#1A00FF"/>
<path d="M506.392 271.943L518.849 293.279L540.576 281.52L528.328 302.975L549.375 315.912L524.67 316.032L523.989 340.728L511.533 319.393L489.805 331.152L502.054 309.696L481.007 296.759L505.712 296.639L506.392 271.943Z" fill="white"/>
<path d="M506.392 99.1801L518.849 120.515L540.576 108.757L528.328 130.212L549.375 143.149L524.67 143.269L523.989 167.965L511.533 146.63L489.805 158.388L502.054 136.933L481.007 123.996L505.712 123.876L506.392 99.1801Z" fill="white"/>
<path d="M570.608 12.7984L558.151 34.1337L536.424 22.375L548.672 43.8301L527.625 56.7674L552.33 56.8872L553.011 81.5832L565.467 60.2479L587.195 72.0067L574.946 50.5515L595.993 37.6142L571.288 37.4944L570.608 12.7984Z" fill="white"/>
</g>
<g clip-path="url(#clip4_511_998)">
<rect width="154" height="353" transform="translate(616)" fill="white"/>
<rect x="616" width="154" height="353" fill="#1A00FF"/>
<path d="M724.608 99.1801L712.151 120.515L690.424 108.757L702.672 130.212L681.625 143.149L706.33 143.269L707.011 167.965L719.467 146.63L741.195 158.388L728.946 136.933L749.993 123.996L725.288 123.876L724.608 99.1801Z" fill="white"/>
<path d="M660.392 185.562L672.849 206.897L694.576 195.138L682.328 216.593L703.375 229.531L678.67 229.651L677.989 254.347L665.533 233.011L643.805 244.77L656.054 223.315L635.007 210.378L659.712 210.258L660.392 185.562Z" fill="white"/>
<path d="M660.392 12.7984L672.849 34.1337L694.576 22.375L682.328 43.8301L703.375 56.7674L678.67 56.8872L677.989 81.5832L665.533 60.2479L643.805 72.0067L656.054 50.5515L635.007 37.6142L659.712 37.4944L660.392 12.7984Z" fill="white"/>
<rect x="616" width="154" height="353" fill="#1A00FF"/>
<path d="M660.392 99.1801L672.849 120.515L694.576 108.757L682.328 130.212L703.375 143.149L678.67 143.269L677.989 167.965L665.533 146.63L643.805 158.388L656.054 136.933L635.007 123.996L659.712 123.876L660.392 99.1801Z" fill="white"/>
<path d="M724.608 185.562L712.151 206.897L690.424 195.138L702.672 216.593L681.625 229.531L706.33 229.651L707.011 254.347L719.467 233.011L741.195 244.77L728.946 223.315L749.993 210.378L725.288 210.258L724.608 185.562Z" fill="white"/>
<path d="M724.608 12.7984L712.151 34.1337L690.424 22.375L702.672 43.8301L681.625 56.7674L706.33 56.8872L707.011 81.5832L719.467 60.2479L741.195 72.0067L728.946 50.5515L749.993 37.6142L725.288 37.4944L724.608 12.7984Z" fill="white"/>
</g>
<defs>
<clipPath id="clip0_511_998">
<rect width="154" height="353" fill="white"/>
</clipPath>
<clipPath id="clip1_511_998">
<rect width="154" height="353" fill="white" transform="translate(154)"/>
</clipPath>
<clipPath id="clip2_511_998">
<rect width="154" height="353" fill="white" transform="translate(308)"/>
</clipPath>
<clipPath id="clip3_511_998">
<rect width="154" height="353" fill="white" transform="translate(462)"/>
</clipPath>
<clipPath id="clip4_511_998">
<rect width="154" height="353" fill="white" transform="translate(616)"/>
</clipPath>
</defs>
</svg>
