<svg width="2380" height="84" viewBox="0 0 2380 84" fill="none" xmlns="http://www.w3.org/2000/svg">
<g clip-path="url(#clip0_518_1008)">
<rect width="595" height="84" fill="white"/>
<rect width="595" height="84" fill="#5DC4F8"/>
<path d="M149 0L170.78 27.1786L254.359 12.3015L201.581 35.8608L298 42L201.581 48.1392L254.359 71.6985L170.78 56.8214L149 84L127.22 56.8214L43.6411 71.6985L96.4193 48.1392L0 42L96.4193 35.8608L43.6411 12.3015L127.22 27.1786L149 0Z" fill="#FF0000"/>
<path d="M446 0L467.78 27.1786L551.359 12.3015L498.581 35.8608L595 42L498.581 48.1392L551.359 71.6985L467.78 56.8214L446 84L424.22 56.8214L340.641 71.6985L393.419 48.1392L297 42L393.419 35.8608L340.641 12.3015L424.22 27.1786L446 0Z" fill="#FF0000"/>
</g>
<g clip-path="url(#clip1_518_1008)">
<rect width="595" height="84" transform="translate(595)" fill="white"/>
<rect x="595" width="595" height="84" fill="#5DC4F8"/>
<path d="M744 0L765.78 27.1786L849.359 12.3015L796.581 35.8608L893 42L796.581 48.1392L849.359 71.6985L765.78 56.8214L744 84L722.22 56.8214L638.641 71.6985L691.419 48.1392L595 42L691.419 35.8608L638.641 12.3015L722.22 27.1786L744 0Z" fill="#FF0000"/>
<path d="M1041 0L1062.78 27.1786L1146.36 12.3015L1093.58 35.8608L1190 42L1093.58 48.1392L1146.36 71.6985L1062.78 56.8214L1041 84L1019.22 56.8214L935.641 71.6985L988.419 48.1392L892 42L988.419 35.8608L935.641 12.3015L1019.22 27.1786L1041 0Z" fill="white"/>
</g>
<g clip-path="url(#clip2_518_1008)">
<rect width="595" height="84" transform="translate(1190)" fill="#FF0000"/>
<rect x="1190" width="595" height="84" fill="#5DC4F8"/>
<path d="M1339 0L1360.78 27.1786L1444.36 12.3015L1391.58 35.8608L1488 42L1391.58 48.1392L1444.36 71.6985L1360.78 56.8214L1339 84L1317.22 56.8214L1233.64 71.6985L1286.42 48.1392L1190 42L1286.42 35.8608L1233.64 12.3015L1317.22 27.1786L1339 0Z" fill="white"/>
<path d="M1636 0L1657.78 27.1786L1741.36 12.3015L1688.58 35.8608L1785 42L1688.58 48.1392L1741.36 71.6985L1657.78 56.8214L1636 84L1614.22 56.8214L1530.64 71.6985L1583.42 48.1392L1487 42L1583.42 35.8608L1530.64 12.3015L1614.22 27.1786L1636 0Z" fill="#FF0000"/>
</g>
<g clip-path="url(#clip3_518_1008)">
<rect width="595" height="84" transform="translate(1785)" fill="#FF0000"/>
<rect x="1785" width="595" height="84" fill="#5DC4F8"/>
<path d="M1934 0L1955.78 27.1786L2039.36 12.3015L1986.58 35.8608L2083 42L1986.58 48.1392L2039.36 71.6985L1955.78 56.8214L1934 84L1912.22 56.8214L1828.64 71.6985L1881.42 48.1392L1785 42L1881.42 35.8608L1828.64 12.3015L1912.22 27.1786L1934 0Z" fill="white"/>
<path d="M2231 0L2252.78 27.1786L2336.36 12.3015L2283.58 35.8608L2380 42L2283.58 48.1392L2336.36 71.6985L2252.78 56.8214L2231 84L2209.22 56.8214L2125.64 71.6985L2178.42 48.1392L2082 42L2178.42 35.8608L2125.64 12.3015L2209.22 27.1786L2231 0Z" fill="white"/>
</g>
<defs>
<clipPath id="clip0_518_1008">
<rect width="595" height="84" fill="white"/>
</clipPath>
<clipPath id="clip1_518_1008">
<rect width="595" height="84" fill="white" transform="translate(595)"/>
</clipPath>
<clipPath id="clip2_518_1008">
<rect width="595" height="84" fill="white" transform="translate(1190)"/>
</clipPath>
<clipPath id="clip3_518_1008">
<rect width="595" height="84" fill="white" transform="translate(1785)"/>
</clipPath>
</defs>
</svg>
